<mxfile host="app.diagrams.net" modified="2021-08-07T16:14:11.704Z" agent="5.0 (Windows NT 10.0; Win64; x64) AppleWebKit/537.36 (KHTML, like Gecko) Chrome/92.0.4515.131 Safari/537.36" etag="0Q98pcVr8ZkHIP5sdxD1" version="14.7.2" type="github">
  <diagram id="rTDkmW30ghzrKzatyCfL" name="Page-1">
    <mxGraphModel dx="1422" dy="762" grid="1" gridSize="10" guides="1" tooltips="1" connect="1" arrows="1" fold="1" page="1" pageScale="1" pageWidth="827" pageHeight="1169" math="0" shadow="0">
      <root>
        <mxCell id="0" />
        <mxCell id="1" parent="0" />
        <mxCell id="KkRLdkWRXrPn7dRKyoIx-1" value="LoginControl" style="swimlane;fontStyle=1;align=center;verticalAlign=top;childLayout=stackLayout;horizontal=1;startSize=26;horizontalStack=0;resizeParent=1;resizeParentMax=0;resizeLast=0;collapsible=1;marginBottom=0;" vertex="1" parent="1">
          <mxGeometry x="140" y="80" width="380" height="138" as="geometry" />
        </mxCell>
        <mxCell id="KkRLdkWRXrPn7dRKyoIx-2" value="- repository: UserRepository&#xa;- userDTO : UserDTO&#xa;" style="text;strokeColor=none;fillColor=none;align=left;verticalAlign=top;spacingLeft=4;spacingRight=4;overflow=hidden;rotatable=0;points=[[0,0.5],[1,0.5]];portConstraint=eastwest;" vertex="1" parent="KkRLdkWRXrPn7dRKyoIx-1">
          <mxGeometry y="26" width="380" height="44" as="geometry" />
        </mxCell>
        <mxCell id="KkRLdkWRXrPn7dRKyoIx-3" value="" style="line;strokeWidth=1;fillColor=none;align=left;verticalAlign=middle;spacingTop=-1;spacingLeft=3;spacingRight=3;rotatable=0;labelPosition=right;points=[];portConstraint=eastwest;" vertex="1" parent="KkRLdkWRXrPn7dRKyoIx-1">
          <mxGeometry y="70" width="380" height="8" as="geometry" />
        </mxCell>
        <mxCell id="KkRLdkWRXrPn7dRKyoIx-4" value="+ authentificate(username : String, password : String): boolean&#xa;-Â  getUserWithJPA(username : String, password : String): UserDTO&#xa;+ getCurrentUser() : UserDTO" style="text;strokeColor=none;fillColor=none;align=left;verticalAlign=top;spacingLeft=4;spacingRight=4;overflow=hidden;rotatable=0;points=[[0,0.5],[1,0.5]];portConstraint=eastwest;" vertex="1" parent="KkRLdkWRXrPn7dRKyoIx-1">
          <mxGeometry y="78" width="380" height="60" as="geometry" />
        </mxCell>
        <mxCell id="KkRLdkWRXrPn7dRKyoIx-6" value="&lt;Interface&gt;&#xa;UserRepository&#xa;" style="swimlane;fontStyle=1;align=center;verticalAlign=top;childLayout=stackLayout;horizontal=1;startSize=40;horizontalStack=0;resizeParent=1;resizeParentMax=0;resizeLast=0;collapsible=1;marginBottom=0;" vertex="1" parent="1">
          <mxGeometry x="140" y="290" width="390" height="156" as="geometry" />
        </mxCell>
        <mxCell id="KkRLdkWRXrPn7dRKyoIx-7" value="+getUserByRolle(rolle: String ): List&lt;UserDTO&gt;" style="text;strokeColor=none;fillColor=none;align=left;verticalAlign=top;spacingLeft=4;spacingRight=4;overflow=hidden;rotatable=0;points=[[0,0.5],[1,0.5]];portConstraint=eastwest;" vertex="1" parent="KkRLdkWRXrPn7dRKyoIx-6">
          <mxGeometry y="40" width="390" height="50" as="geometry" />
        </mxCell>
        <mxCell id="KkRLdkWRXrPn7dRKyoIx-8" value="" style="line;strokeWidth=1;fillColor=none;align=left;verticalAlign=middle;spacingTop=-1;spacingLeft=3;spacingRight=3;rotatable=0;labelPosition=right;points=[];portConstraint=eastwest;" vertex="1" parent="KkRLdkWRXrPn7dRKyoIx-6">
          <mxGeometry y="90" width="390" height="40" as="geometry" />
        </mxCell>
        <mxCell id="KkRLdkWRXrPn7dRKyoIx-9" value="+ method(type): type" style="text;strokeColor=none;fillColor=none;align=left;verticalAlign=top;spacingLeft=4;spacingRight=4;overflow=hidden;rotatable=0;points=[[0,0.5],[1,0.5]];portConstraint=eastwest;" vertex="1" parent="KkRLdkWRXrPn7dRKyoIx-6">
          <mxGeometry y="130" width="390" height="26" as="geometry" />
        </mxCell>
      </root>
    </mxGraphModel>
  </diagram>
</mxfile>
